<svg width="913" height="555" viewBox="0 0 913 555" fill="none" xmlns="http://www.w3.org/2000/svg">
<path d="M3 130C3 83.0558 41.0558 45 88 45H828C874.944 45 913 83.0558 913 130V155.822H3V130Z" fill="white"/>
<path d="M3 159.222C3 112.277 41.0558 74.2216 88 74.2216H828C874.944 74.2216 913 112.277 913 159.222V470C913 516.944 874.944 555 828 555H3V159.222Z" fill="white"/>
<path d="M97 55H819.562C865.402 55 902.562 92.1604 902.562 138V158.487H14V138C14 92.1604 51.1604 55 97 55Z" fill="#FF548F" stroke="#1E1E1E" stroke-width="4"/>
<path d="M97 83.3423H819.562C865.402 83.3423 902.562 120.503 902.562 166.342V462.652C902.562 508.492 865.402 545.652 819.562 545.652H14V166.342C14 120.503 51.1604 83.3423 97 83.3423Z" fill="white" stroke="#1E1E1E" stroke-width="4"/>
<path d="M833.203 77.1898L835.733 78.4054C837.687 79.3444 839.963 79.4383 841.988 78.6634L844.558 77.6796C848.477 76.18 852.263 80.1372 850.375 83.7598L849.137 86.1362C848.162 88.0082 848.067 90.1939 848.876 92.1434L849.923 94.6671C851.485 98.4305 847.391 102.042 843.619 100.229L841.089 99.0135C839.134 98.0745 836.858 97.9807 834.833 98.7556L832.263 99.7393C828.345 101.239 824.559 97.2818 826.446 93.6591L827.684 91.2827C828.66 89.4108 828.755 87.225 827.946 85.2756L826.898 82.7519C825.337 78.9885 829.43 75.3771 833.203 77.1898Z" fill="#FFC567" stroke="black" stroke-width="3"/>
<path d="M880.459 81.8488C881.048 80.2429 880.898 78.4736 880.044 76.9893C878.649 74.5624 881.131 71.7462 883.854 72.6671C885.519 73.2303 887.361 73.0799 888.913 72.2568C891.466 70.9035 894.394 73.2841 893.426 75.9248C892.837 77.5307 892.987 79.3001 893.84 80.7843C895.236 83.2113 892.753 86.0275 890.03 85.1066C888.365 84.5434 886.523 84.6938 884.971 85.5168C882.419 86.8702 879.49 84.4895 880.459 81.8488Z" fill="#FFC567" stroke="black" stroke-width="3"/>
<path d="M867.162 18.6307L869.417 26.9106C869.978 28.9679 871.394 30.6811 873.309 31.6195L880.61 35.1967C884.364 37.0365 883.74 42.5705 879.662 43.5951L871.732 45.5871C869.652 46.1096 867.887 47.4917 866.881 49.3859L862.83 57.0095C860.912 60.6204 855.576 60.0651 854.508 56.1433L852.252 47.8633C851.692 45.806 850.276 44.0928 848.361 43.1545L841.06 39.5772C837.305 37.7374 837.93 32.2034 842.008 31.1789L849.938 29.1869C852.018 28.6644 853.783 27.2823 854.789 25.3881L858.84 17.7644C860.758 14.1535 866.094 14.7089 867.162 18.6307Z" fill="#FFC567" stroke="black" stroke-width="3"/>
</svg>
