<svg width="1440" height="900" viewBox="0 0 1440 900" fill="none" xmlns="http://www.w3.org/2000/svg">
<ellipse cx="130.273" cy="61.6634" rx="130.273" ry="61.6634" transform="matrix(0.894201 0.447666 -0.701275 0.712891 164.422 -81.1649)" stroke="#494949" stroke-width="3"/>
<ellipse cx="227.534" cy="107.701" rx="227.534" ry="107.701" transform="matrix(0.894201 0.447666 -0.701275 0.712891 133.661 -140.163)" stroke="#494949" stroke-width="3"/>
<ellipse cx="322.153" cy="157.328" rx="322.153" ry="157.328" transform="matrix(0.875658 0.482931 -0.73893 0.673782 108.174 -204.058)" stroke="#494949" stroke-width="3"/>
<ellipse cx="407.256" cy="202.528" rx="407.256" ry="202.528" transform="matrix(0.894201 0.447666 -0.701275 0.712891 104.057 -227.746)" stroke="#494949" stroke-width="3"/>
<ellipse cx="503.445" cy="266.323" rx="503.445" ry="266.323" transform="matrix(0.894201 0.447666 -0.701275 0.712891 100.219 -288.045)" stroke="#494949" stroke-width="3"/>
<ellipse cx="571.801" cy="324.449" rx="571.801" ry="324.449" transform="matrix(0.906979 0.421175 -0.670502 0.741908 115.036 -303.594)" stroke="#494949" stroke-width="3"/>
<ellipse cx="653.29" cy="375.233" rx="653.29" ry="375.233" transform="matrix(0.906979 0.421175 -0.670502 0.741908 121.889 -328.952)" stroke="#494949" stroke-width="3"/>
<ellipse cx="744.659" cy="431.183" rx="744.659" ry="431.183" transform="matrix(0.906979 0.421175 -0.670502 0.741908 139.033 -368.458)" stroke="#494949" stroke-width="3"/>
<ellipse cx="860.338" cy="498.824" rx="860.338" ry="498.824" transform="matrix(0.906958 0.42122 -0.670448 0.741957 80.4529 -458.964)" stroke="#494949" stroke-width="3"/>
<path d="M939.476 165.405L940.951 177.799L958.371 180.793L940.699 181.137L937.379 193.169L935.904 180.775L918.485 177.781L936.157 177.437L939.476 165.405Z" fill="#D9D9D9"/>
<path d="M929.858 67.5824L933.649 79.4745L951.321 79.1205L934.033 82.7994L933.048 95.2425L929.256 83.3505L911.585 83.7044L928.873 80.0255L929.858 67.5824Z" fill="#D9D9D9"/>
<path d="M154.268 384.804L155.501 395.163L170.059 397.665L155.29 397.952L152.515 408.008L151.283 397.649L136.724 395.147L151.493 394.86L154.268 384.804Z" fill="#D9D9D9"/>
<path d="M144.286 288.702L145.518 299.061L160.077 301.563L145.308 301.85L142.533 311.907L141.3 301.548L126.742 299.046L141.511 298.758L144.286 288.702Z" fill="#D9D9D9"/>
<path d="M82.3179 170.672L83.5505 181.031L98.1092 183.533L83.3398 183.82L80.5652 193.876L79.3326 183.517L64.7738 181.015L79.5433 180.728L82.3179 170.672Z" fill="#D9D9D9"/>
<path d="M38.4978 66.0135L39.7304 76.3723L54.2892 78.8746L39.5197 79.1617L36.7451 89.2179L35.5125 78.859L20.9537 76.3567L35.7232 76.0697L38.4978 66.0135Z" fill="#D9D9D9"/>
<path d="M159.091 187.806L159.795 193.725L168.114 195.155L159.675 195.319L158.089 201.065L157.385 195.146L149.065 193.716L157.505 193.552L159.091 187.806Z" fill="#D9D9D9"/>
<path d="M476.209 288.436L476.913 294.356L485.233 295.786L476.793 295.95L475.207 301.696L474.503 295.777L466.184 294.347L474.623 294.183L476.209 288.436Z" fill="#D9D9D9"/>
<path d="M659.266 147.574L659.97 153.493L668.29 154.923L659.85 155.087L658.265 160.833L657.56 154.914L649.241 153.484L657.681 153.32L659.266 147.574Z" fill="#D9D9D9"/>
<path d="M835.263 100.191L835.967 106.111L844.286 107.541L835.847 107.705L834.261 113.451L833.557 107.532L825.238 106.102L833.677 105.938L835.263 100.191Z" fill="#D9D9D9"/>
<path d="M570.082 60.1586L570.786 66.078L579.105 67.5079L570.665 67.6719L569.08 73.4183L568.376 67.4989L560.056 66.069L568.496 65.905L570.082 60.1586Z" fill="#D9D9D9"/>
<path d="M434.786 63.2747L435.49 69.1941L443.809 70.6239L435.37 70.788L433.784 76.5344L433.08 70.615L424.76 69.1851L433.2 69.0211L434.786 63.2747Z" fill="#D9D9D9"/>
<path d="M722.525 109.012L723.229 114.931L731.549 116.361L723.109 116.525L721.524 122.272L720.819 116.352L712.5 114.922L720.94 114.758L722.525 109.012Z" fill="#D9D9D9"/>
<path d="M916.539 330.364L917.243 336.283L925.562 337.713L917.123 337.877L915.537 343.623L914.833 337.704L906.513 336.274L914.953 336.11L916.539 330.364Z" fill="#D9D9D9"/>
<path d="M743.418 618.665L744.122 624.585L752.442 626.015L744.002 626.179L742.416 631.925L741.712 626.006L733.393 624.576L741.832 624.412L743.418 618.665Z" fill="#D9D9D9"/>
<path d="M901.675 653.956L902.38 659.875L910.699 661.305L902.259 661.469L900.674 667.215L899.969 661.296L891.65 659.866L900.09 659.702L901.675 653.956Z" fill="#D9D9D9"/>
<path d="M724.93 736.62L725.634 742.539L733.953 743.969L725.514 744.133L723.928 749.88L723.224 743.96L714.905 742.53L723.344 742.366L724.93 736.62Z" fill="#D9D9D9"/>
<path d="M1251.63 776.403L1252.33 782.322L1260.65 783.752L1252.21 783.916L1250.63 789.663L1249.92 783.743L1241.6 782.313L1250.04 782.149L1251.63 776.403Z" fill="#D9D9D9"/>
<path d="M555.832 540.487L556.537 546.406L564.856 547.836L556.416 548L554.831 553.747L554.126 547.827L545.807 546.397L554.247 546.233L555.832 540.487Z" fill="#D9D9D9"/>
<path d="M110.647 575.538L111.351 581.457L119.67 582.887L111.231 583.051L109.645 588.797L108.941 582.878L100.622 581.448L109.061 581.284L110.647 575.538Z" fill="#D9D9D9"/>
<path d="M37.4145 644.684L38.1189 650.603L46.4382 652.033L37.9985 652.197L36.413 657.944L35.7087 652.024L27.3894 650.594L35.8291 650.43L37.4145 644.684Z" fill="#D9D9D9"/>
<path d="M1313.84 143.007L1314.54 148.927L1322.86 150.357L1314.42 150.521L1312.84 156.267L1312.13 150.348L1303.81 148.918L1312.25 148.754L1313.84 143.007Z" fill="#D9D9D9"/>
<path d="M1189.67 150.965L1190.38 156.884L1198.7 158.314L1190.26 158.478L1188.67 164.224L1187.97 158.305L1179.65 156.875L1188.09 156.711L1189.67 150.965Z" fill="#D9D9D9"/>
<path d="M1039.56 388.329L1040.26 394.249L1048.58 395.679L1040.14 395.843L1038.56 401.589L1037.85 395.67L1029.53 394.24L1037.97 394.076L1039.56 388.329Z" fill="#D9D9D9"/>
<path d="M1149.13 269.253L1149.83 275.173L1158.15 276.603L1149.71 276.767L1148.13 282.513L1147.42 276.594L1139.1 275.164L1147.54 275L1149.13 269.253Z" fill="#D9D9D9"/>
<path d="M1296.32 489.069L1297.02 494.988L1305.34 496.418L1296.9 496.582L1295.32 502.329L1294.61 496.409L1286.3 494.979L1294.74 494.815L1296.32 489.069Z" fill="#D9D9D9"/>
<path d="M1072.51 586.181L1073.21 592.1L1081.53 593.53L1073.09 593.694L1071.51 599.44L1070.8 593.521L1062.48 592.091L1070.92 591.927L1072.51 586.181Z" fill="#D9D9D9"/>
<path d="M902.016 522.629L902.72 528.548L911.04 529.978L902.6 530.142L901.015 535.888L900.31 529.969L891.991 528.539L900.431 528.375L902.016 522.629Z" fill="#D9D9D9"/>
<path d="M775.937 441.762L776.642 447.681L784.961 449.111L776.521 449.275L774.936 455.021L774.232 449.102L765.912 447.672L774.352 447.508L775.937 441.762Z" fill="#D9D9D9"/>
<path d="M615.229 476.963L615.933 482.883L624.253 484.313L615.813 484.477L614.227 490.223L613.523 484.304L605.204 482.874L613.644 482.71L615.229 476.963Z" fill="#D9D9D9"/>
<path d="M398.671 414.599L399.375 420.519L407.694 421.949L399.255 422.113L397.669 427.859L396.965 421.94L388.645 420.51L397.085 420.346L398.671 414.599Z" fill="#D9D9D9"/>
<path d="M487.465 634.004L488.169 639.924L496.488 641.354L488.049 641.518L486.463 647.264L485.759 641.345L477.439 639.915L485.879 639.751L487.465 634.004Z" fill="#D9D9D9"/>
<path d="M463.946 128.506L465.421 140.901L482.841 143.895L465.169 144.238L461.849 156.271L460.374 143.876L442.954 140.882L460.626 140.539L463.946 128.506Z" fill="#D9D9D9"/>
<path d="M242.946 504.506L244.421 516.901L261.841 519.895L244.169 520.238L240.849 532.271L239.374 519.876L221.954 516.882L239.626 516.539L242.946 504.506Z" fill="#D9D9D9"/>
<path d="M295.946 596.506L297.421 608.901L314.841 611.895L297.169 612.238L293.849 624.271L292.374 611.876L274.954 608.882L292.626 608.539L295.946 596.506Z" fill="#D9D9D9"/>
<path d="M17.4734 445.815L18.706 456.174L33.2647 458.676L18.4953 458.963L15.7207 469.02L14.4881 458.661L-0.0706831 456.158L14.6988 455.871L17.4734 445.815Z" fill="#D9D9D9"/>
<path d="M260.191 192.775L261.666 205.169L279.086 208.164L261.414 208.507L258.094 220.539L256.619 208.145L239.199 205.151L256.871 204.807L260.191 192.775Z" fill="#D9D9D9"/>
<path d="M1237.9 310.631L1239.38 323.025L1256.79 326.019L1239.12 326.363L1235.8 338.395L1234.33 326L1216.91 323.006L1234.58 322.663L1237.9 310.631Z" fill="#D9D9D9"/>
<path d="M1021.95 669.506L1023.42 681.901L1040.84 684.895L1023.17 685.238L1019.85 697.271L1018.37 684.876L1000.95 681.882L1018.63 681.539L1021.95 669.506Z" fill="#D9D9D9"/>
<path d="M901.946 774.506L903.421 786.901L920.841 789.895L903.169 790.238L899.849 802.271L898.374 789.876L880.954 786.882L898.626 786.539L901.946 774.506Z" fill="#D9D9D9"/>
<path d="M870.059 458.103L868.692 470.51L884.983 477.367L867.692 473.704L861.736 484.674L863.103 472.267L846.812 465.41L864.104 469.073L870.059 458.103Z" fill="#D9D9D9"/>
<path d="M1282.95 647.506L1284.42 659.901L1301.84 662.895L1284.17 663.238L1280.85 675.271L1279.37 662.876L1261.95 659.882L1279.63 659.539L1282.95 647.506Z" fill="#D9D9D9"/>
<path d="M1061.95 478.506L1063.42 490.901L1080.84 493.895L1063.17 494.238L1059.85 506.271L1058.37 493.876L1040.95 490.882L1058.63 490.539L1061.95 478.506Z" fill="#D9D9D9"/>
<path d="M443.079 485.474L448.708 496.614L466.1 493.464L449.613 499.837L450.613 512.278L444.984 501.138L427.592 504.288L444.079 497.915L443.079 485.474Z" fill="#D9D9D9"/>
<path d="M550.319 588.695L546.466 600.567L561.029 610.583L544.838 603.492L536.783 613.027L540.637 601.155L526.073 591.139L542.264 598.23L550.319 588.695Z" fill="#D9D9D9"/>
<path d="M389.946 706.506L391.421 718.901L408.841 721.895L391.169 722.238L387.849 734.271L386.374 721.876L368.954 718.882L386.626 718.539L389.946 706.506Z" fill="#D9D9D9"/>
<path d="M644.946 298.506L646.421 310.901L663.841 313.895L646.169 314.238L642.849 326.271L641.374 313.876L623.954 310.882L641.626 310.539L644.946 298.506Z" fill="#D9D9D9" fill-opacity="0.65"/>
<path d="M854.274 288.582L849.823 300.243L863.859 310.986L848.05 303.082L839.521 312.195L843.972 300.534L829.936 289.791L845.745 297.695L854.274 288.582Z" fill="#D9D9D9" fill-opacity="0.65"/>
<path d="M527.946 215.506L529.421 227.901L546.841 230.895L529.169 231.238L525.849 243.271L524.374 230.876L506.954 227.882L524.626 227.539L527.946 215.506Z" fill="#D9D9D9" fill-opacity="0.7"/>
<path d="M534.481 407.101L539.345 418.596L556.91 416.626L540.032 421.872L540.19 434.353L535.326 422.858L517.76 424.828L534.639 419.582L534.481 407.101Z" fill="#D9D9D9"/>
<g filter="url(#filter0_f_27_26)">
<ellipse cx="241.087" cy="15.3057" rx="47.7577" ry="33.2436" transform="rotate(4.31951 241.087 15.3057)" fill="white"/>
</g>
<defs>
<filter id="filter0_f_27_26" x="71.3977" y="-140.041" width="339.378" height="310.693" filterUnits="userSpaceOnUse" color-interpolation-filters="sRGB">
<feFlood flood-opacity="0" result="BackgroundImageFix"/>
<feBlend mode="normal" in="SourceGraphic" in2="BackgroundImageFix" result="shape"/>
<feGaussianBlur stdDeviation="61" result="effect1_foregroundBlur_27_26"/>
</filter>
</defs>
</svg>
