<svg width="250" height="250" viewBox="0 0 250 250" fill="none" xmlns="http://www.w3.org/2000/svg">
<rect width="250" height="250" rx="10" fill="#FFC567"/>
<path d="M104.569 61.1666V24H58C39.7746 24 25 38.7746 25 57V112.26L209.764 101.321C215.048 101.008 219.173 96.6319 219.173 91.3386V48.7126H148.564V71.6603" stroke="white" stroke-width="18" stroke-linecap="round"/>
<path d="M62.0193 138.855L38.3188 141.528C30.7331 142.383 25 148.8 25 156.433V207.901C25 217.042 33.1064 224.058 42.1528 222.746L65.8533 219.309C73.2289 218.239 78.7006 211.917 78.7006 204.464V153.76C78.7006 144.81 70.913 137.851 62.0193 138.855Z" stroke="white" stroke-width="18"/>
<path d="M99.1387 132.439V192.651C99.1387 201.906 107.437 208.953 116.57 207.453L144.524 202.862C151.773 201.671 157.093 195.406 157.093 188.06V126.382" stroke="white" stroke-width="18"/>
<path d="M180.645 192.822L180.361 136.438C180.348 133.909 182.226 131.768 184.736 131.452L213.226 127.865C219.378 127.09 224.745 132.043 224.465 138.237L223.006 170.561C222.499 181.782 214.571 191.288 203.624 193.8L186.764 197.67C183.642 198.386 180.662 196.024 180.645 192.822Z" stroke="white" stroke-width="18"/>
</svg>
