<svg width="62" height="62" viewBox="0 0 62 62" fill="none" xmlns="http://www.w3.org/2000/svg">
<path d="M25.5382 13.5276V3H13C7.47716 3 3 7.47715 3 13V27.9999L48.591 25.3007C53.8751 24.9879 58 20.6115 58 15.3182V9.99992H38V16.4999" stroke="white" stroke-width="6" stroke-linecap="round"/>
<path d="M18.2108 51.212V43.5114C18.2108 38.9735 14.2624 35.4453 9.75298 35.9539C5.90686 36.3877 3 39.6409 3 43.5114V51.212C3 55.8468 7.11016 59.4039 11.6969 58.7387C15.4365 58.1964 18.2108 54.9907 18.2108 51.212Z" stroke="white" stroke-width="5"/>
<path d="M24 33.7156V46.1086C24 51.1727 28.5409 55.0287 33.538 54.2079V54.2079C37.5046 53.5565 40.4157 50.1283 40.4157 46.1086V31.9999" stroke="white" stroke-width="5"/>
<path d="M47.0809 49.6075L47.0175 37.0602C47.0075 35.0815 48.4768 33.4071 50.44 33.1599L52.8201 32.8601C56.389 32.4107 59.5024 35.284 59.3401 38.8774L59.252 40.8297C59.0102 46.1853 55.2263 50.7221 50.0011 51.9214C48.5113 52.2633 47.0886 51.136 47.0809 49.6075Z" stroke="white" stroke-width="5"/>
</svg>
